# xmcd
#
# Track frame offsets: 
#        150
#        14700
#        31105
#        49425
#        74363
#        90960
#        102680
#        123538
#        139308
#        157325
#        170310
#        196605
#        215025
#        232605
#
# Disc length: 3319 seconds
#
# Revision: 3
# Processed by: cddbd v1.4PL0 Copyright (c) Steve Scherf et al.
# Submitted via: ExactAudioCopy v0.95a3
#
DISCID=c60cf50e
DTITLE=Rolf Wikström - Blues  är allt jag har
DYEAR=1992
DGENRE=Blues
TTITLE0=Gamle Lightnin'
TTITLE1=Reser runt
TTITLE2=Kom till mig kvinna
TTITLE3=Jag tror jag kommer bli galen
TTITLE4=En helvetes vacker kvinna
TTITLE5=Det bor en hund
TTITLE6=Behöver nån att älska
TTITLE7=Hej å hå
TTITLE8=Allt kommer att bli så bra
TTITLE9=Jag vill älska med dig
TTITLE10=Dina ögons språk
TTITLE11=Vecka läggs till vecka
TTITLE12=Blues är allt jag har
TTITLE13=En helvetes vacker kvinna [blues]
EXTD=
EXTT0=
EXTT1=
EXTT2=
EXTT3=
EXTT4=
EXTT5=
EXTT6=
EXTT7=
EXTT8=
EXTT9=
EXTT10=
EXTT11=
EXTT12=
EXTT13=
PLAYORDER=
